# xmcd CD database file
#
# Track frame offsets:
#	150
#	41800
#	72967
#	84367
#	114450
#	134080
#	163637
#	173827
#	183174
#	191907
#	203919
#	216809
#	228332
#	240697
#	252402
#	264634
#	275837
#	286874
#	296364
#	307087
#	319007
#
# Disc length: 4408 seconds
#
# Revision: 0
# Processed by: cddbd v1.5.2PL0 Copyright (c) Steve Scherf et al.
# Submitted via: CDex 1.70beta2
#
DISCID=46113615
DTITLE=Chet Baker - Golden gate Quartet - Chet Baker - Golden gate Quartet
DYEAR=1900
DGENRE=Jazz
TTITLE0=Chet Baker_01- Mr Biko_Baker_Lackerschmid
TTITLE1=Chet Baker_02- Balzwaltz_Baker_Lackerschmid
TTITLE2=Chet Baker_03- The latin One_Baker_Lackerschmid
TTITLE3=Chet Baker_04- Rue Gregoire Du Tour_Baker_Lackerschmid
TTITLE4=Chet Baker_05- Heres That Rainy Day_Baker_Lackerschmid
TTITLE5=Chet Baker_06- Toko Du_Baker_Lackerschmid
TTITLE6=Golden Gate Quartet_01- when the saints go marching in_Golden Gate Quartet
TTITLE7=Golden Gate Quartet_02- Rock my soul_Golden Gate Quartet
TTITLE8=Golden Gate Quartet_03- Travelin'shoes_Golden Gate Quartet
TTITLE9=Golden Gate Quartet_04- Golden gate gospel train_Golden Gate Quartet
TTITLE10=Golden Gate Quartet_05- Jezebel_Golden Gate Quartet
TTITLE11=Golden Gate Quartet_06- Moses smote the water_Golden Gate Quartet
TTITLE12=Golden Gate Quartet_07- Daniel saw the stome_Golden Gate Quartet
TTITLE13=Golden Gate Quartet_08- Goe told nicodemos_Golden Gate Quartet
TTITLE14=Golden Gate Quartet_09- Anyhow_Golden Gate Quartet
TTITLE15=Golden Gate Quartet_10- Didn't it rain__Golden Gate Quartet
TTITLE16=Golden Gate Quartet_11- Jonah in the whale_Golden Gate Quartet
TTITLE17=Golden Gate Quartet_12- Our Father_Golden Gate Quartet
TTITLE18=Golden Gate Quartet_13- Hide me in thy bosom_Golden Gate Quartet
TTITLE19=Golden Gate Quartet_14- Rock island line_Golden Gate Quartet
TTITLE20=Golden Gate Quartet_15- Noah_Golden Gate Quartet
EXTD=
EXTT0=
EXTT1=
EXTT2=
EXTT3=
EXTT4=
EXTT5=
EXTT6=
EXTT7=
EXTT8=
EXTT9=
EXTT10=
EXTT11=
EXTT12=
EXTT13=
EXTT14=
EXTT15=
EXTT16=
EXTT17=
EXTT18=
EXTT19=
EXTT20=
PLAYORDER=
